<?xml version="1.0" encoding="UTF-8"?>
<svg id="Ebene_2" data-name="Ebene 2" xmlns="http://www.w3.org/2000/svg" viewBox="0 0 330.42 46.55">
  <defs>
    <style>
      .cls-1 {
        fill: none;
      }

      .cls-2 {
        fill: #e30613;
      }
    </style>
  </defs>
  <g id="Ebene_2-2" data-name="Ebene 2">
    <g>
      <g>
        <path class="cls-1" d="M42.42,18.22s0,0,0,0c-.02.1.12-.47,0,0Z"/>
        <polygon class="cls-2" points="52.15 2.37 49.36 2.37 46.25 6.64 49.06 6.64 50.14 6.64 48.42 9.01 54.25 8.99 55.7 7.04 56 6.64 59.93 6.64 62.28 2.37 59.18 2.37 60.95 0 54.96 0 53.24 2.37 52.15 2.37"/>
        <g>
          <path d="M28.71,13.58c-3.4,0-6.58,1.72-8.43,4.55l-1.7,2.15-5.7,7.39h11.95s5.79-7.17,7.39-9.45c1.36-.02,8.85-.03,10.2-.04,0,.03,0,.05-.01.06,0,0,0,0,0,0,.12-.46-.02.11,0,0-.7,2.7-1.66,5.86-4,8.84-1.79,2.27-4.26,4.11-7.19,4.5-.21.03-1.28.06-2.14.07-.27,0-.52.01-.72.02-.18,0-.31,0-.37,0-.22.01-.43.02-.64.02H10.2l-6.34,9.23-1.46,2.12-2.41,3.51h11.78l5.21-7.22h12.52c12.59,0,21.99-8.56,21.99-21.07l-.28-4.68h-22.51Z"/>
          <path d="M24.97,0c-4.6,0-8.89,1.36-12.47,3.7-2.22,1.44-4.17,3.26-5.76,5.37-2.11,2.8-3.56,6.08-4.19,9.53-.54,2.97-.37,6.05-.37,9.05v.02h8.11v-.04c-.24-1.18-.38-2.41-.38-3.67,0-3.73,1.16-7.17,3.1-9.91.62-.99,1.39-1.86,2.29-2.59,1.84-1.5,4.18-2.4,6.72-2.4h8.5s16.2-.02,16.2-.02l.45-.63.54-.74h-3.9l1.19-1.63,3.11-4.26.31-.42h3.87L53.27,0h-28.31,0Z"/>
        </g>
      </g>
      <g>
        <path class="cls-2" d="M71.91,29.28c-.05.67-.1,1.3-.1,1.82,0,3.5,1.06,5.18,3.46,5.18,1.82,0,3.07-1.34,3.07-3.65,0-3.26-2.35-4.61-5.42-7.44-3.41-3.17-5.14-6.19-5.14-9.98,0-6.58,3.94-10.32,11.19-10.32,6.58,0,10.03,3.36,10.03,9.84,0,.67,0,1.39-.1,2.16h-7.25v-.62c0-3.65-.82-5.23-3.12-5.23-1.78,0-2.78,1.2-2.78,3.12,0,2.45,1.54,3.94,4.08,6.14,3.7,3.26,6.53,5.62,6.53,11.28,0,7.3-3.94,11.14-11.52,11.14-7.15,0-10.75-3.79-10.75-11.38,0-.67.05-1.34.1-2.06h7.73Z"/>
        <path class="cls-2" d="M93.41,5.81h7.87l-.91,16.95c-.05.77-.24,3.6-.67,8.5h.14c.72-2.83,1.49-5.38,2.16-7.58l5.57-17.86h7.92l-.86,18.19c-.05.62-.14,3.02-.43,7.25h.14c1.15-4.32,1.87-6.82,2.06-7.49l5.52-17.95h8.16l-13.39,36.1h-8.98l.96-15.84c.1-1.92.14-4.03.58-6.34h-.24c-.62,2.78-1.3,4.99-1.87,6.77l-4.8,15.41h-8.93V5.81Z"/>
        <path class="cls-2" d="M134.26,5.81h8.54l-7.68,36.1h-8.5l7.63-36.1Z"/>
        <path class="cls-2" d="M149.62,29.28c-.05.67-.1,1.3-.1,1.82,0,3.5,1.06,5.18,3.46,5.18,1.82,0,3.07-1.34,3.07-3.65,0-3.26-2.35-4.61-5.42-7.44-3.41-3.17-5.14-6.19-5.14-9.98,0-6.58,3.94-10.32,11.19-10.32,6.58,0,10.03,3.36,10.03,9.84,0,.67,0,1.39-.1,2.16h-7.25v-.62c0-3.65-.82-5.23-3.12-5.23-1.78,0-2.78,1.2-2.78,3.12,0,2.45,1.54,3.94,4.08,6.14,3.7,3.26,6.53,5.62,6.53,11.28,0,7.3-3.94,11.14-11.52,11.14-7.15,0-10.75-3.79-10.75-11.38,0-.67.05-1.34.1-2.06h7.73Z"/>
        <path class="cls-2" d="M174.63,29.28c-.05.67-.1,1.3-.1,1.82,0,3.5,1.06,5.18,3.46,5.18,1.82,0,3.07-1.34,3.07-3.65,0-3.26-2.35-4.61-5.42-7.44-3.41-3.17-5.14-6.19-5.14-9.98,0-6.58,3.94-10.32,11.19-10.32,6.58,0,10.03,3.36,10.03,9.84,0,.67,0,1.39-.1,2.16h-7.25v-.62c0-3.65-.82-5.23-3.12-5.23-1.78,0-2.78,1.2-2.78,3.12,0,2.45,1.54,3.94,4.08,6.14,3.7,3.26,6.53,5.62,6.53,11.28,0,7.3-3.94,11.14-11.52,11.14-7.15,0-10.75-3.79-10.75-11.38,0-.67.05-1.34.1-2.06h7.73Z"/>
        <path d="M199.01,5.81h8.02c4.46,0,7.63.24,9.74,2.06,1.82,1.54,2.74,3.79,2.74,6.72,0,8.78-4.18,13.01-12.62,13.01h-4.03l-3.02,14.31h-8.5l7.68-36.1ZM206.21,21.41c3.12,0,4.9-2.21,4.9-6.05,0-2.16-1.1-3.41-3.02-3.41h-1.92l-2.02,9.46h2.06Z"/>
        <path d="M226.66,5.81h8.02c4.46,0,7.63.24,9.74,2.06,1.82,1.54,2.69,3.7,2.69,6.53,0,5.57-2.26,8.93-6.86,10.03,2.64.67,3.79,2.11,3.79,4.61,0,2.93-1.34,6.14-1.34,9.46,0,1.06.14,1.92.58,2.69v.72h-8.83c-.29-.62-.38-1.34-.38-2.21,0-3.41,1.49-6.96,1.49-10.08,0-1.58-1.1-2.59-2.88-2.59h-2.11l-3.12,14.88h-8.45l7.68-36.1ZM233.72,20.64c3.17,0,4.9-2.02,4.9-5.52,0-2.02-1.06-3.17-2.98-3.17h-1.87l-1.82,8.69h1.78Z"/>
        <path d="M255.07,5.81h8.54l-7.68,36.1h-8.5l7.63-36.1Z"/>
        <path d="M269.81,5.81h8.59l1.58,12.19c.1.77.38,3.84.86,9.22h.19c.77-5.95,1.25-9.31,1.39-10.13l2.35-11.28h7.97l-7.68,36.1h-8.54l-1.49-12.24c-.38-3.31-.72-6.62-.96-9.84h-.34c-.53,5.04-.91,8.59-1.34,10.71l-2.3,11.38h-7.92l7.63-36.1Z"/>
        <path d="M301.87,12.91h-7.06l1.54-7.1h22.27l-1.49,7.1h-6.72l-6.14,28.99h-8.54l6.14-28.99Z"/>
        <path d="M314.14,37.44c-.07.38-.11.72-.11,1.08,0,.9.25,1.3.88,1.3.81,0,1.33-.83,1.33-2.34,0-1.26-.45-1.67-1.8-1.67h-.09l.47-2.2c.18.02.36.04.52.04,1.4,0,2.07-.7,2.07-2.16,0-.67-.31-1.03-.81-1.03-.67,0-1.1.54-1.21,1.58h-2.81c.27-2.5,1.64-3.75,4.14-3.75,2.34,0,3.56,1.13,3.56,3.3,0,1.84-.85,3.02-2.54,3.49,1.04.63,1.51,1.48,1.51,2.7,0,2.72-1.58,4.36-4.36,4.36-2.38,0-3.67-1.3-3.67-3.71,0-.31.04-.65.07-.99h2.83Z"/>
        <path d="M322.84,28.36h3.78c2.56,0,3.8,1.12,3.8,3.46,0,.47-.05,1.17-.22,2.14-.41,2.52-.9,4.39-1.44,5.6-.7,1.55-2,2.34-3.83,2.34h-4.97l2.88-13.54ZM323.65,39.47h.7c1.39,0,1.69-.94,2.11-2.92l.65-3.08c.14-.68.2-1.21.2-1.53,0-.77-.36-1.15-1.08-1.15h-.72l-1.85,8.68Z"/>
      </g>
    </g>
  </g>
</svg>