<?xml version="1.0" encoding="UTF-8"?>
<svg id="design" xmlns="http://www.w3.org/2000/svg" viewBox="0 0 621.64 129.68">
  <defs>
    <style>
      .cls-1 {
        fill: #1d1d1b;
      }
    </style>
  </defs>
  <path class="cls-1" d="M166.89,77.69c-.42,4.43.36,8.91,4.85,8.91,3.27,0,5.11-2.11,5.75-5.6.79-4.28-.46-7.5-6.56-12.45-8.74-7.08-12.15-12.29-10.51-21.33,1.47-8.11,6.98-14.52,18.12-14.52,15.37,0,18.25,10.81,17.14,18.26h-12.78c.36-3.28.08-7.9-4.41-7.9-2.78,0-4.38,1.69-4.9,4.87-.52,3.14.43,5.4,6.79,10.4,10.21,8.1,12.88,14.17,10.71,24.13-1.81,8.36-7.82,14.49-19.58,14.49-15.7,0-19.2-9.99-17.79-19.27h13.16Z"/>
  <path class="cls-1" d="M221.58,33.3l-9.19,43.2c-.97,4.51-.81,9.06,4.19,9.06s6.21-4.51,7.18-9.06l9.19-43.2h13.97l-9.12,42.86c-2.61,12.38-7.61,20.22-22.47,20.22s-19.39-8-16.68-20.71l9.03-42.38h13.91Z"/>
  <path class="cls-1" d="M270.55,33.85l-13.18,61.98h-13.88l13.18-61.98h13.88Z"/>
  <path class="cls-1" d="M281.8,77.69c-.42,4.43.36,8.91,4.85,8.91,3.27,0,5.11-2.11,5.75-5.6.79-4.28-.46-7.5-6.56-12.45-8.74-7.08-12.15-12.29-10.51-21.33,1.47-8.11,6.98-14.52,18.12-14.52,15.37,0,18.25,10.81,17.14,18.26h-12.78c.36-3.28.08-7.9-4.41-7.9-2.78,0-4.38,1.69-4.9,4.87-.52,3.14.43,5.4,6.79,10.4,10.21,8.1,12.88,14.17,10.71,24.13-1.81,8.36-7.82,14.49-19.58,14.49-15.7,0-19.2-9.99-17.79-19.27h13.16Z"/>
  <path class="cls-1" d="M325.76,77.69c-.42,4.43.36,8.91,4.85,8.91,3.27,0,5.11-2.11,5.75-5.6.79-4.28-.46-7.5-6.56-12.45-8.74-7.08-12.15-12.29-10.51-21.33,1.47-8.11,6.98-14.52,18.12-14.52,15.37,0,18.25,10.81,17.14,18.26h-12.78c.36-3.28.08-7.9-4.41-7.9-2.78,0-4.38,1.69-4.9,4.87-.52,3.14.43,5.4,6.79,10.4,10.21,8.1,12.88,14.17,10.71,24.13-1.81,8.36-7.82,14.49-19.58,14.49-15.7,0-19.2-9.99-17.79-19.27h13.16Z"/>
  <path class="cls-1" d="M392.1,69.25h-18.31l-3.22,15.36h21.69l-3.83,11.22h-33.98l13.18-61.98h32.82l-2.49,11.25h-19.1l-2.68,12.9h18.31l-2.4,11.25Z"/>
  <path class="cls-1" d="M409.3,33.85h16.19c14.3,0,20.27,8.73,17.4,22.25-2.76,12.89-11.31,16.84-22.27,16.84h-5.9l-4.82,22.89h-13.78l13.18-61.98ZM417.02,62.21h4.3c4.83,0,7.23-2.47,8.37-8.38,1.23-6.31-.49-9.44-5.39-9.44h-3.49l-3.79,17.82Z"/>
  <path class="cls-1" d="M461.07,70.07l-5.41,25.76h-13.75l13.18-61.98h18.39c14.08,0,18.71,8.44,16.29,19.23-1.83,8.09-6.63,11.08-10.85,12.31,4.11,2.18,5.99,6.32,4.25,14.91-1.5,7.46-2.43,12.57-2.64,15.54h-13.45c-.09-2.6,1.05-8.88,2.53-16.31,1.43-7.12.33-9.45-4.98-9.45h-3.58ZM463.34,59.68h3.55c4.82,0,7.74-1.16,8.96-6.87,1.13-5.42-.56-8.62-5.68-8.62h-3.57l-3.26,15.48Z"/>
  <path class="cls-1" d="M516.06,33.85l-13.18,61.98h-13.88l13.18-61.98h13.88Z"/>
  <path class="cls-1" d="M513.41,95.83l13.18-61.98h15.33c2.86,27.77,3.81,37.01,3.96,40.14h.25c1.07-7.8,3.24-19.85,5.19-28.88l2.4-11.26h12.55l-13.18,61.98h-15.11c-2.36-28.83-3.37-39.41-3.61-42.63h-.29c-1.13,7.46-3.41,20.43-5.57,30.57l-2.58,12.06h-12.54Z"/>
  <path class="cls-1" d="M581.76,45.1h-11.79l2.43-11.25h37.27l-2.43,11.25h-11.63l-10.76,50.73h-13.84l10.76-50.73Z"/>
  <g>
    <path class="cls-1" d="M108.34,53.29s0,0,0,.01c-.04.23.28-1.07,0-.01Z"/>
    <polygon class="cls-1" points="130.43 17.08 124.1 17.08 117.03 26.83 123.4 26.83 125.87 26.83 121.97 32.24 135.21 32.2 138.51 27.75 139.19 26.83 148.1 26.83 153.44 17.08 146.41 17.08 150.42 11.67 136.8 11.67 132.9 17.08 130.43 17.08"/>
    <path class="cls-1" d="M77.19,42.68c-7.73,0-14.95,3.92-19.15,10.4l-3.85,4.91-12.96,16.88h27.15s13.16-16.39,16.8-21.6c3.08-.03,20.09-.07,23.18-.1-.01.07-.02.11-.03.13,0,0,0,0,0-.01.27-1.06-.04.24,0,.01-1.6,6.17-3.77,13.4-9.09,20.2-4.06,5.19-9.67,9.39-16.34,10.28-.47.06-2.91.13-4.86.16-.62.02-1.19.03-1.63.05-.41,0-.71,0-.84.02-.49.03-.98.05-1.47.05h-38.95l-14.39,21.08-3.3,4.84-5.48,8.02h26.76l11.83-16.49h28.44c28.59,0,49.95-19.55,49.95-48.14l-.65-10.7h-51.12Z"/>
    <path class="cls-1" d="M68.69,11.67c-10.46,0-20.19,3.11-28.33,8.45-5.04,3.3-9.47,7.45-13.08,12.27-4.8,6.4-8.09,13.88-9.52,21.76-1.23,6.78-.83,13.81-.83,20.68v.06h18.41v-.1c-.56-2.69-.87-5.5-.87-8.38,0-8.53,2.63-16.37,7.04-22.63,1.4-2.26,3.17-4.25,5.2-5.92,4.18-3.43,9.5-5.48,15.27-5.49l19.32-.02,36.81-.04,1.03-1.43,1.22-1.69h-8.86l2.71-3.73,7.07-9.74.7-.97h8.79l2.21-3.07h-64.3Z"/>
  </g>
</svg>